<svg width="40" height="41" viewBox="0 0 40 41" fill="none" xmlns="http://www.w3.org/2000/svg">
<path fill-rule="evenodd" clip-rule="evenodd" d="M15.1425 36.7454L15.1683 36.768L15.1863 36.7506L15.1425 36.7454Z" fill="#5E40E0"/>
<path fill-rule="evenodd" clip-rule="evenodd" d="M21.5732 23.8825H1.43103C0.645372 23.8825 0 23.2626 0 22.5021V10.901C0 10.5281 0.151039 10.1775 0.430077 9.91548L10.455 0.398794C11.0133 -0.124711 11.8991 -0.132119 12.4571 0.391386L22.5816 9.91548C22.8607 10.1775 23.0117 10.5306 23.0117 10.901V22.4947C23.0043 23.2626 22.3668 23.8825 21.5732 23.8825Z" fill="#5E40E0" fill-opacity="0.6"/>
<path fill-rule="evenodd" clip-rule="evenodd" d="M21.4021 26.2257V31.6334C21.4021 35.8464 24.3945 39.264 28.086 39.264H32.5508H32.589C36.2574 39.2366 39.2068 35.8192 39.1809 31.6334V31.5966C39.2142 31.4558 39.2298 31.3101 39.2298 31.1617L39.2093 24.9982C39.204 24.05 38.4081 23.2822 37.4222 23.2822H33.0779" fill="#E9EAF0"/>
<path fill-rule="evenodd" clip-rule="evenodd" d="M32.5504 40.0024H28.0858C23.977 40.0024 20.6337 36.2465 20.6337 31.6313V26.2231C20.6337 25.8134 20.9767 25.4823 21.4017 25.4823C21.8264 25.4823 22.1697 25.8134 22.1697 26.2231V31.6313C22.1697 35.4289 24.8241 38.5208 28.0858 38.5208H32.5911C35.8218 38.4959 38.4384 35.4069 38.4151 31.6362V31.594C38.4151 31.5374 38.4227 31.4804 38.4355 31.4263C38.456 31.347 38.464 31.2609 38.464 31.1594L38.4435 24.9983C38.4409 24.4602 37.9827 24.0204 37.4246 24.0204H33.08C32.6551 24.0204 32.3121 23.6895 32.3121 23.2796C32.3121 22.87 32.6551 22.5388 33.08 22.5388H37.4246C38.8275 22.5388 39.9743 23.6377 39.9795 24.9911L39.9999 31.1547C39.9999 31.3372 39.9846 31.5053 39.951 31.6683C39.9587 36.2339 36.6668 39.9676 32.5965 39.9997H32.5504V40.0024Z" fill="#5E40E0"/>
<path fill-rule="evenodd" clip-rule="evenodd" d="M27.2902 31.8263L33.0908 31.8584V10.5972H18.5145V31.8584H24.4611V13.4937" fill="#E9EAF0"/>
<path fill-rule="evenodd" clip-rule="evenodd" d="M24.4609 32.5991H18.5143C18.0891 32.5991 17.7463 32.2682 17.7463 31.8582V10.597C17.7463 10.1871 18.0891 9.8562 18.5143 9.8562H33.0906C33.5156 9.8562 33.8586 10.1871 33.8586 10.597V31.8582C33.8586 32.0558 33.777 32.2437 33.6333 32.3842C33.4902 32.5225 33.2954 32.5991 33.0906 32.5991H33.0855L27.2846 32.567C26.8596 32.5645 26.5191 32.2311 26.5217 31.8215C26.5245 31.4138 26.8673 31.0853 27.2897 31.0853H27.2948L32.3226 31.1125V11.3378H19.2823V31.1174H23.6929V13.4936C23.6929 13.0837 24.036 12.7528 24.4609 12.7528C24.8859 12.7528 25.2289 13.0837 25.2289 13.4936V31.8582C25.2289 32.2682 24.8859 32.5991 24.4609 32.5991Z" fill="#5E40E0"/>
<path fill-rule="evenodd" clip-rule="evenodd" d="M26.7648 15.7856V14.1212C26.7648 13.6076 27.2025 13.1829 27.7378 13.1829H29.463C29.9955 13.1829 30.4358 13.6051 30.4358 14.1212V15.7856C30.4358 16.2992 29.9983 16.7239 29.463 16.7239H27.7378C27.2025 16.7239 26.7648 16.3017 26.7648 15.7856Z" fill="#5E40E0" fill-opacity="0.6"/>
<path fill-rule="evenodd" clip-rule="evenodd" d="M18.65 12.0193C19.8885 12.0193 20.8926 12.9878 20.8926 14.1825C20.8926 15.3771 19.8885 16.3456 18.65 16.3456C17.4113 16.3456 16.4072 15.3771 16.4072 14.1825C16.4072 12.9878 17.4113 12.0193 18.65 12.0193Z" fill="#E9EAF0"/>
<path fill-rule="evenodd" clip-rule="evenodd" d="M18.6498 12.7572C17.8355 12.7572 17.175 13.3968 17.175 14.1796C17.175 14.9624 17.8381 15.6019 18.6498 15.6019C19.4639 15.6019 20.1244 14.9624 20.1244 14.1796C20.1244 13.3968 19.4639 12.7572 18.6498 12.7572ZM18.6498 17.0858C16.9884 17.0858 15.639 15.7822 15.639 14.182C15.639 12.5819 16.991 11.2781 18.6498 11.2781C20.311 11.2781 21.6604 12.5819 21.6604 14.182C21.6604 15.7822 20.311 17.0858 18.6498 17.0858Z" fill="#5E40E0"/>
<path fill-rule="evenodd" clip-rule="evenodd" d="M18.1661 17.2441C19.4315 17.2441 20.4572 18.2336 20.4572 19.4542C20.4572 20.6748 19.4315 21.6641 18.1661 21.6641C16.9007 21.6641 15.8749 20.6748 15.8749 19.4542C15.8749 18.2336 16.9007 17.2441 18.1661 17.2441Z" fill="#E9EAF0"/>
<path fill-rule="evenodd" clip-rule="evenodd" d="M18.166 17.9828C17.3263 17.9828 16.6428 18.6421 16.6428 19.4518C16.6428 20.2618 17.3266 20.9211 18.166 20.9211C19.0057 20.9211 19.6892 20.2618 19.6892 19.4518C19.6892 18.6421 19.0057 17.9828 18.166 17.9828ZM18.166 22.4052C16.479 22.4052 15.1068 21.0819 15.1068 19.4546C15.1068 17.827 16.479 16.5037 18.166 16.5037C19.853 16.5037 21.2252 17.827 21.2252 19.4546C21.2252 21.0819 19.853 22.4052 18.166 22.4052Z" fill="#5E40E0"/>
<path fill-rule="evenodd" clip-rule="evenodd" d="M18.1661 22.6223C19.4047 22.6223 20.4087 23.591 20.4087 24.7857C20.4087 25.9804 19.4047 26.9489 18.1661 26.9489C16.9276 26.9489 15.9236 25.9804 15.9236 24.7857C15.9236 23.591 16.9276 22.6223 18.1661 22.6223Z" fill="#E9EAF0"/>
<path fill-rule="evenodd" clip-rule="evenodd" d="M18.1659 23.3632C17.3519 23.3632 16.6914 24.003 16.6914 24.7858C16.6914 25.5686 17.3544 26.2082 18.1659 26.2082C18.9775 26.2082 19.6405 25.5686 19.6405 24.7858C19.6405 24.003 18.98 23.3632 18.1659 23.3632ZM18.1659 27.6898C16.5045 27.6898 15.1554 26.3857 15.1554 24.7858C15.1554 23.1854 16.5073 21.8816 18.1659 21.8816C19.8248 21.8816 21.1765 23.1854 21.1765 24.7858C21.1765 26.3857 19.8248 27.6898 18.1659 27.6898Z" fill="#5E40E0"/>
<path fill-rule="evenodd" clip-rule="evenodd" d="M18.6502 26.9265C19.6156 26.9265 20.3984 27.6816 20.3984 28.6131C20.3984 29.5445 19.6156 30.2997 18.6502 30.2997C17.6846 30.2997 16.9017 29.5445 16.9017 28.6131C16.9017 27.6816 17.6846 26.9265 18.6502 26.9265Z" fill="#E9EAF0"/>
<path fill-rule="evenodd" clip-rule="evenodd" d="M18.65 27.6674C18.1099 27.6674 17.6695 28.0921 17.6695 28.6132C17.6695 29.134 18.1099 29.5589 18.65 29.5589C19.1899 29.5589 19.6302 29.134 19.6302 28.6132C19.6302 28.0921 19.1899 27.6674 18.65 27.6674ZM18.65 31.0406C17.2622 31.0406 16.1335 29.9516 16.1335 28.6132C16.1335 27.2748 17.2625 26.1858 18.65 26.1858C20.0375 26.1858 21.1662 27.2748 21.1662 28.6132C21.1662 29.9516 20.0375 31.0406 18.65 31.0406Z" fill="#5E40E0"/>
<path fill-rule="evenodd" clip-rule="evenodd" d="M39.0989 24.4208L35.4025 19.2746C34.527 18.1264 32.9114 17.835 31.7929 18.6328C30.6742 19.4228 30.4794 20.9985 31.3552 22.1517L33.5107 25.1319H35.6173" fill="#E9EAF0"/>
<path fill-rule="evenodd" clip-rule="evenodd" d="M35.6199 25.8751H33.5133C33.2622 25.8751 33.0266 25.7565 32.8835 25.559L30.728 22.5782C29.6142 21.1117 29.883 19.067 31.3396 18.0373C32.0183 17.5533 32.8628 17.3558 33.7204 17.4792C34.6266 17.6099 35.464 18.1062 36.0218 18.8374L39.7315 23.9981C39.9719 24.3342 39.8848 24.796 39.5369 25.0278C39.1885 25.2602 38.7098 25.1762 38.4694 24.8404L34.7726 19.6942C34.4679 19.2942 33.9969 19.0152 33.4926 18.9411C33.0446 18.8766 32.6019 18.9779 32.2538 19.2273C31.4779 19.7757 31.3552 20.8916 31.9796 21.7139L33.9178 24.3907H35.6253C36.0502 24.3907 36.3933 24.7219 36.3933 25.1315C36.3933 25.5415 36.0449 25.8751 35.6199 25.8751Z" fill="#5E40E0"/>
</svg>
