<svg width="40" height="41" viewBox="0 0 40 41" fill="none" xmlns="http://www.w3.org/2000/svg">
<mask id="mask0_858_4716" style="mask-type:alpha" maskUnits="userSpaceOnUse" x="0" y="0" width="41" height="41">
<rect x="0.000488281" y="0.799805" width="40" height="40" fill="#C4C4C4"/>
</mask>
<g mask="url(#mask0_858_4716)">
<circle cx="10.1262" cy="11.0332" r="10.2334" fill="#F197C2"/>
<path fill-rule="evenodd" clip-rule="evenodd" d="M10.0812 13.1437C10.0231 13.0693 9.91142 13.0668 9.84992 13.1384L4.21215 19.7039C4.12885 19.8009 4.19778 19.951 4.32565 19.951H15.1016C15.2263 19.951 15.2963 19.8074 15.2195 19.7092L10.0812 13.1437Z" stroke="#E22D84" stroke-width="1.5"/>
<path fill-rule="evenodd" clip-rule="evenodd" d="M21.267 13.1447C21.2079 13.0702 21.0951 13.0691 21.0345 13.1425L15.6124 19.7061C15.5318 19.8037 15.6012 19.951 15.7277 19.951H26.358C26.4831 19.951 26.553 19.8064 26.4752 19.7084L21.267 13.1447Z" stroke="#7F7F7F" stroke-width="1.5"/>
<path d="M35.748 16.0016C35.4863 15.6806 35.0139 15.6325 34.6928 15.8942C34.3718 16.1559 34.3237 16.6283 34.5854 16.9494L35.748 16.0016ZM32.5905 14.4801C32.8557 14.7983 33.3286 14.8413 33.6468 14.5762C33.9651 14.311 34.0081 13.8381 33.7429 13.5199L32.5905 14.4801ZM37.801 19.7069L37.2197 20.1808L37.801 19.7069ZM26.7929 19.7061L26.2147 19.2284L26.7929 19.7061ZM32.2186 13.139L31.6404 12.6613L32.2186 13.139ZM32.4488 13.1385L33.025 12.6584L32.4488 13.1385ZM31.6404 12.6613L26.2147 19.2284L27.3711 20.1838L32.7968 13.6167L31.6404 12.6613ZM26.9082 20.701H37.685V19.201H26.9082V20.701ZM38.3823 19.233L35.748 16.0016L34.5854 16.9494L37.2197 20.1808L38.3823 19.233ZM33.7429 13.5199L33.025 12.6584L31.8727 13.6186L32.5905 14.4801L33.7429 13.5199ZM37.685 20.701C38.4432 20.701 38.8614 19.8206 38.3823 19.233L37.2197 20.1808C36.8999 19.7886 37.179 19.201 37.685 19.201V20.701ZM26.2147 19.2284C25.73 19.815 26.1473 20.701 26.9082 20.701V19.201C27.4161 19.201 27.6945 19.7923 27.3711 20.1838L26.2147 19.2284ZM32.7968 13.6167C32.5573 13.9066 32.1134 13.9075 31.8727 13.6186L33.025 12.6584C32.6644 12.2256 31.9992 12.227 31.6404 12.6613L32.7968 13.6167Z" fill="#E22D84"/>
<path fill-rule="evenodd" clip-rule="evenodd" d="M10.2759 13C10.1512 13 10.0813 13.1436 10.1581 13.2418L15.2941 19.8045C15.353 19.8797 15.4664 19.8812 15.5273 19.8076L20.9486 13.2449C21.0292 13.1473 20.9598 13 20.8333 13H10.2759Z" stroke="#E22D84" stroke-width="1.5"/>
<path fill-rule="evenodd" clip-rule="evenodd" d="M21.4607 13C21.3355 13 21.2657 13.1445 21.3435 13.2426L26.5516 19.8062C26.6107 19.8808 26.7235 19.8819 26.7841 19.8085L32.2063 13.2449C32.2869 13.1473 32.2175 13 32.0909 13H21.4607Z" stroke="#E22D84" stroke-width="1.5"/>
<path fill-rule="evenodd" clip-rule="evenodd" d="M26.7797 19.9509C26.7125 19.9509 26.6536 19.9957 26.6356 20.0604L21.1859 39.6066C21.1426 39.7617 21.3414 39.8663 21.4447 39.7427L29.4994 30.113L31.6243 27.5725L33.7493 25.032L35.8743 22.4914L37.7938 20.1965C37.8753 20.0991 37.806 19.9509 37.6791 19.9509H26.7797Z" stroke="#E22D84" stroke-width="1.5"/>
<path fill-rule="evenodd" clip-rule="evenodd" d="M4.32017 19.9509C4.1932 19.9509 4.12396 20.0991 4.20541 20.1965L20.5582 39.7472C20.6613 39.8705 20.8598 39.7665 20.8172 39.6115L15.4389 20.0608C15.4211 19.9959 15.362 19.9509 15.2947 19.9509H4.32017Z" stroke="#E22D84" stroke-width="1.5"/>
<path fill-rule="evenodd" clip-rule="evenodd" d="M15.6064 19.9509C15.5076 19.9509 15.4359 20.045 15.4621 20.1402L20.8578 39.7542C20.898 39.9005 21.1054 39.9008 21.1461 39.7547L26.614 20.1407C26.6406 20.0453 26.5689 19.9509 26.4699 19.9509H15.6064Z" stroke="#E22D84" stroke-width="1.5"/>
</g>
</svg>
