<svg width="41" height="40" viewBox="0 0 41 40" fill="none" xmlns="http://www.w3.org/2000/svg">
<path fill-rule="evenodd" clip-rule="evenodd" d="M8.11874 16.4028C8.50313 16.4028 8.8208 16.6885 8.87108 17.0591L8.87801 17.1621V19.3464H19.5344C19.7113 19.3464 19.8815 19.4082 20.0165 19.5191L20.0931 19.5915L29.3815 29.6855C30.0109 30.314 30.2861 31.1741 30.2072 32.0051H37.6191C39.3066 32.0051 40.5238 33.3413 40.5238 34.9232C40.5238 36.3911 39.4535 37.7378 38.1281 37.8311L37.974 37.8363L19.1144 40C18.8394 40 18.6696 39.9922 18.4524 39.9558C18.1312 39.9019 17.849 39.797 17.6587 39.6462L17.5715 39.5671L8.87801 32.711V35.5608C8.87801 35.9452 8.59237 36.2628 8.22177 36.3131L8.11874 36.3201H0.759266C0.339935 36.3201 0 35.9801 0 35.5608C0 35.1764 0.28564 34.8587 0.656238 34.8085L0.759266 34.8015L7.3588 34.8014V17.9214H0.759266C0.374879 17.9214 0.0572072 17.6357 0.0069312 17.2651L0 17.1621C0 16.7777 0.28564 16.46 0.656238 16.4098L0.759266 16.4028H8.11874ZM8.87801 30.7773L18.5802 38.4357L18.7036 38.4582L18.8664 38.4774L19.0276 38.4864L37.8873 36.3227C38.461 36.3227 39.0053 35.6655 39.0053 34.9232C39.0053 34.1955 38.4998 33.5979 37.7604 33.5301L37.6191 33.5237H29.5994C29.5723 33.5578 29.5444 33.5914 29.5155 33.6245L29.4119 33.7352L29.3292 33.8389C28.2683 35.0645 26.3241 35.177 25.1857 34.1935L25.0531 34.0702L19.8501 29.4218C19.5374 29.1424 19.5104 28.6624 19.7897 28.3497C20.0437 28.0655 20.4635 28.0173 20.7726 28.2208L20.8618 28.2894L26.0954 32.9667C26.6055 33.476 27.6058 33.4522 28.1429 32.8869L28.3085 32.6933C28.798 32.2045 28.8307 31.4002 28.3884 30.8506L28.2863 30.7369L19.2013 20.8641L8.87801 20.865V30.7773Z" fill="#6592D7"/>
<path fill-rule="evenodd" clip-rule="evenodd" d="M38.2773 25.4344H17.4018C16.588 25.4344 15.9199 24.7749 15.9199 23.9631V11.608C15.9199 11.2129 16.0739 10.8338 16.3626 10.5586L26.7522 0.421601C27.3295 -0.137024 28.2478 -0.142201 28.8279 0.416151L39.322 10.5586C39.6107 10.8393 39.7646 11.2129 39.7646 11.6077V23.9522C39.7616 24.7749 39.102 25.4344 38.2773 25.4344Z" fill="#6592D7" fill-opacity="0.6"/>
</svg>
