<svg width="40" height="41" viewBox="0 0 40 41" fill="none" xmlns="http://www.w3.org/2000/svg">
<path fill-rule="evenodd" clip-rule="evenodd" d="M17.0085 38.6391L17.0315 38.6621L17.0493 38.6445L17.0085 38.6391Z" fill="#5E40E0"/>
<path fill-rule="evenodd" clip-rule="evenodd" d="M38.274 40.0026H18.8855C18.1296 40.0026 17.5092 39.3846 17.5092 38.624V27.0465C17.5092 26.6763 17.6521 26.3211 17.9203 26.0632L27.5698 16.5643C28.1061 16.0408 28.9589 16.0359 29.4977 16.5591L39.2443 26.0632C39.5124 26.3262 39.6554 26.6763 39.6554 27.0463V38.6137C39.6526 39.3846 39.04 40.0026 38.274 40.0026Z" fill="#4FCB9E" fill-opacity="0.6"/>
<path fill-rule="evenodd" clip-rule="evenodd" d="M17.1415 37.8679L17.167 37.8909L17.1849 37.873L17.1415 37.8679Z" fill="#5E40E0"/>
<path fill-rule="evenodd" clip-rule="evenodd" d="M0.766042 31.6859C0.564318 31.6859 0.370254 31.6065 0.227259 31.4638C0.0817112 31.3205 0 31.1242 0 30.9199V0.768483C0 0.344607 0.342165 0.00244141 0.766042 0.00244141H22.7029C23.1268 0.00244141 23.469 0.344607 23.469 0.768483V18.594C23.469 19.0182 23.1268 19.3601 22.7029 19.3601C22.2791 19.3601 21.9369 19.0182 21.9369 18.594V1.53453H1.53208V30.1485L21.9369 30.0134V25.5831C21.9369 25.159 22.2791 24.8171 22.7029 24.8171C23.1268 24.8171 23.469 25.159 23.469 25.5831V30.7743C23.469 31.1957 23.1294 31.5378 22.708 31.5404L0.771149 31.6859H0.766042Z" fill="#4FCB9E"/>
<path fill-rule="evenodd" clip-rule="evenodd" d="M18.7577 16.255H4.03692C3.61304 16.255 3.27087 15.9128 3.27087 15.4889C3.27087 15.0653 3.61304 14.7229 4.03692 14.7229H18.7577C19.1816 14.7229 19.5237 15.0653 19.5237 15.4889C19.5237 15.9128 19.1816 16.255 18.7577 16.255Z" fill="#4FCB9E"/>
<path fill-rule="evenodd" clip-rule="evenodd" d="M7.72158 28.4581H4.03692C3.61304 28.4581 3.27087 28.1159 3.27087 27.6921C3.27087 27.2684 3.61304 26.926 4.03692 26.926H7.72158C8.14545 26.926 8.48762 27.2684 8.48762 27.6921C8.48762 28.1159 8.14545 28.4581 7.72158 28.4581Z" fill="#4FCB9E"/>
<path fill-rule="evenodd" clip-rule="evenodd" d="M4.80273 10.9515H18.2136V4.90234H4.80273V10.9515ZM18.9798 12.4837H4.03692C3.61304 12.4837 3.27087 12.1415 3.27087 11.7177V4.1364C3.27087 3.71278 3.61304 3.37036 4.03692 3.37036H18.9798C19.4037 3.37036 19.7459 3.71278 19.7459 4.1364V11.7177C19.7459 12.1415 19.4037 12.4837 18.9798 12.4837Z" fill="#4FCB9E"/>
<path fill-rule="evenodd" clip-rule="evenodd" d="M3.78174 25.4579H7.32341V21.9163H3.78174V25.4579Z" fill="#4FCB9E"/>
<path fill-rule="evenodd" clip-rule="evenodd" d="M11.3577 19.35H4.03692C3.61304 19.35 3.27087 19.0078 3.27087 18.5839C3.27087 18.16 3.61304 17.8179 4.03692 17.8179H11.3577C11.7816 17.8179 12.1238 18.16 12.1238 18.5839C12.1238 19.0078 11.7816 19.35 11.3577 19.35Z" fill="#4FCB9E"/>
</svg>
