<svg width="42" height="39" viewBox="0 0 42 39" fill="none" xmlns="http://www.w3.org/2000/svg">
<circle opacity="0.6" cx="28.6137" cy="12.3923" r="11.9224" fill="#ECDA93"/>
<path d="M27.9333 8.19238L28.0558 8.19896C29.6245 8.42497 30.4584 9.53081 30.4584 11.2849C30.4584 12.7628 29.1768 13.7755 27.8335 14.0784L27.7744 14.0887L30.2564 16.5421C30.5234 16.8058 30.5261 17.236 30.2624 17.503C29.9987 17.77 29.5685 17.7727 29.3014 17.509L25.1931 13.4424L25.1547 13.3922L25.1133 13.268L25.0226 12.9765L26.0986 12.4402L26.1572 12.4873L26.289 12.614C26.8951 13.2048 29.0994 12.5096 29.0994 11.2849C29.0994 10.1708 28.72 9.6677 27.862 9.54408C27.4905 9.49057 27.2328 9.14607 27.2863 8.77463C27.3339 8.44446 27.6114 8.20413 27.9333 8.19238Z" fill="#E0C24B"/>
<path d="M31.8176 8.19177C32.1929 8.19177 32.4971 8.496 32.4971 8.87128C32.4971 9.20486 32.2567 9.4823 31.9398 9.53983L31.8176 9.55078L25.7021 9.55078C25.3268 9.55078 25.0226 9.24655 25.0226 8.87128C25.0226 8.53769 25.263 8.26025 25.5799 8.20272L25.7021 8.19177L31.8176 8.19177Z" fill="#E0C24B"/>
<path d="M31.8176 10.2308C32.1929 10.2308 32.4971 10.5351 32.4971 10.9103C32.4971 11.2439 32.2568 11.5214 31.9398 11.5789L31.8176 11.5898L25.7021 11.5898C25.3268 11.5898 25.0226 11.2856 25.0226 10.9103C25.0226 10.5768 25.263 10.2993 25.58 10.2418L25.7021 10.2308L31.8176 10.2308Z" fill="#E0C24B"/>
<path fill-rule="evenodd" clip-rule="evenodd" d="M8.8902 15.2832C9.27458 15.2832 9.59226 15.5688 9.64253 15.9394L9.64946 16.0425V18.2268H20.3059C20.4828 18.2268 20.653 18.2885 20.788 18.3995L20.8646 18.4719L30.153 28.5659C30.7824 29.1943 31.0576 30.0544 30.9787 30.8855H38.3906C40.078 30.8855 41.2953 32.2217 41.2953 33.8036C41.2953 35.2715 40.225 36.6182 38.8995 36.7115L38.7455 36.7166L19.8858 38.8804C19.6109 38.8804 19.4411 38.8726 19.2239 38.8362C18.9026 38.7823 18.6204 38.6774 18.4302 38.5266L18.3429 38.4474L9.64946 31.5914V34.4412C9.64946 34.8256 9.36382 35.1432 8.99323 35.1935L8.8902 35.2004H1.53072C1.11139 35.2004 0.771454 34.8605 0.771454 34.4412C0.771454 34.0568 1.05709 33.7391 1.42769 33.6888L1.53072 33.6819L8.13026 33.6817V16.8017H1.53072C1.14633 16.8017 0.828661 16.5161 0.778385 16.1455L0.771454 16.0425C0.771454 15.6581 1.05709 15.3404 1.42769 15.2901L1.53072 15.2832H8.8902ZM9.64946 29.6576L19.3516 37.316L19.475 37.3386L19.6378 37.3577L19.7991 37.3668L38.6587 35.2031C39.2325 35.2031 39.7768 34.5459 39.7768 33.8036C39.7768 33.0759 39.2713 32.4782 38.5319 32.4104L38.3906 32.404H30.3709C30.3438 32.4382 30.3158 32.4718 30.2869 32.5049L30.1833 32.6155L30.1006 32.7193C29.0398 33.9449 27.0955 34.0573 25.9571 33.0738L25.8245 32.9506L20.6215 28.3022C20.3088 28.0228 20.2818 27.5428 20.5612 27.2301C20.8152 26.9458 21.2349 26.8976 21.5441 27.1011L21.6333 27.1698L26.8669 31.8471C27.377 32.3564 28.3773 32.3326 28.9143 31.7673L29.08 31.5736C29.5695 31.0848 29.6021 30.2806 29.1598 29.731L29.0578 29.6173L19.9727 19.7444L9.64946 19.7453V29.6576Z" fill="#E0C24B"/>
</svg>
