<svg width="40" height="40" viewBox="0 0 40 40" fill="none" xmlns="http://www.w3.org/2000/svg">
<mask id="mask0_181_406" style="mask-type:alpha" maskUnits="userSpaceOnUse" x="0" y="0" width="40" height="40">
<rect width="40" height="40" fill="#D9D9D9"/>
</mask>
<g mask="url(#mask0_181_406)">
<circle cx="10" cy="10" r="10" fill="#14CCC1" fill-opacity="0.5"/>
<path fill-rule="evenodd" clip-rule="evenodd" d="M12.5995 11.5395C12.6725 11.1743 12.9931 10.9113 13.3656 10.9113H38.7499C38.9806 10.9113 39.1995 11.0133 39.348 11.1899C39.4964 11.3665 39.5592 11.5998 39.5195 11.827L35.2274 36.3845C35.1621 36.7584 34.8374 37.0313 34.4578 37.0313H8.46046C8.22643 37.0313 8.00473 36.9263 7.85634 36.7454C7.70795 36.5644 7.6485 36.3265 7.69434 36.097L8.67537 31.1855C8.75989 30.7624 9.1714 30.4879 9.59452 30.5724C10.0176 30.6569 10.2921 31.0684 10.2076 31.4915L9.41319 35.4688H33.8013L37.8202 12.4738H14.0063L13.1507 16.7571C13.0662 17.1802 12.6547 17.4547 12.2316 17.3702C11.8085 17.2856 11.534 16.8741 11.6185 16.451L12.5995 11.5395ZM12.0471 18.2937C12.4702 18.3782 12.7447 18.7897 12.6602 19.2128L10.8208 28.4219C10.7362 28.845 10.3247 29.1195 9.90161 29.0349C9.4785 28.9504 9.20401 28.5389 9.28852 28.1158L11.128 18.9068C11.2125 18.4836 11.624 18.2092 12.0471 18.2937Z" fill="#14CCC1"/>
<path fill-rule="evenodd" clip-rule="evenodd" d="M32.643 10.9113C33.0745 10.9113 33.4243 11.2611 33.4243 11.6925C33.4243 12.9081 33.5569 13.9064 34.0704 14.6076C34.5432 15.2532 35.4805 15.8228 37.5482 15.8228C37.9797 15.8228 38.3295 16.1726 38.3295 16.604C38.3295 17.0355 37.9797 17.3853 37.5482 17.3853C35.2012 17.3853 33.6859 16.727 32.8098 15.5308C31.9744 14.3902 31.8618 12.9327 31.8618 11.6925C31.8618 11.2611 32.2116 10.9113 32.643 10.9113ZM29.9778 31.6264C31.2822 30.6831 33.0901 30.3002 35.1925 30.5634C35.6206 30.6169 35.9243 31.0075 35.8707 31.4356C35.8171 31.8637 35.4266 32.1674 34.9985 32.1138C33.1767 31.8858 31.7963 32.2396 30.8934 32.8925C30.0063 33.534 29.5 34.5191 29.5 35.7589C29.5 36.1904 29.1502 36.5402 28.7188 36.5402C28.2873 36.5402 27.9375 36.1904 27.9375 35.7589C27.9375 34.0519 28.6575 32.5812 29.9778 31.6264Z" fill="#14CCC1"/>
<path fill-rule="evenodd" clip-rule="evenodd" d="M4.24561 16.6042C4.24561 16.1727 4.59538 15.8229 5.02686 15.8229H13.9788C14.4103 15.8229 14.76 16.1727 14.76 16.6042C14.76 17.0356 14.4103 17.3854 13.9788 17.3854H5.02686C4.59538 17.3854 4.24561 17.0356 4.24561 16.6042Z" fill="#14CCC1"/>
<path fill-rule="evenodd" clip-rule="evenodd" d="M0.46875 23.9716C0.468755 23.5402 0.818537 23.1904 1.25001 23.1904L10.9132 23.1905C11.3447 23.1905 11.6944 23.5403 11.6944 23.9718C11.6944 24.4032 11.3446 24.753 10.9132 24.753L1.24999 24.7529C0.818518 24.7529 0.468745 24.4031 0.46875 23.9716Z" fill="#14CCC1"/>
<path fill-rule="evenodd" clip-rule="evenodd" d="M2.77393 31.3387C2.77393 30.9072 3.1237 30.5574 3.55518 30.5574H10.9129C11.3444 30.5574 11.6942 30.9072 11.6942 31.3387C11.6942 31.7701 11.3444 32.1199 10.9129 32.1199H3.55518C3.1237 32.1199 2.77393 31.7701 2.77393 31.3387Z" fill="#14CCC1"/>
<path fill-rule="evenodd" clip-rule="evenodd" d="M22.9308 18.6133C21.8896 18.6133 20.92 18.9104 20.0993 19.4243C19.7336 19.6532 19.2515 19.5423 19.0225 19.1766C18.7936 18.8109 18.9044 18.3288 19.2701 18.0999C20.3321 17.435 21.5878 17.0508 22.9308 17.0508C26.7495 17.0508 29.8435 20.1503 29.8435 23.9715C29.8435 27.7927 26.7495 30.8921 22.9308 30.8921C19.112 30.8921 16.0181 27.7927 16.0181 23.9715C16.0181 22.9572 16.2365 21.9918 16.6296 21.1218C16.8073 20.7286 17.2701 20.5539 17.6633 20.7315C18.0565 20.9092 18.2312 21.372 18.0535 21.7652C17.75 22.437 17.5806 23.1834 17.5806 23.9715C17.5806 26.9316 19.9769 29.3296 22.9308 29.3296C25.8847 29.3296 28.281 26.9316 28.281 23.9715C28.281 21.0113 25.8847 18.6133 22.9308 18.6133Z" fill="#14CCC1"/>
<path fill-rule="evenodd" clip-rule="evenodd" d="M20.2537 22.254C20.2537 21.9041 20.5373 21.6204 20.8872 21.6204H24.8629C25.2129 21.6204 25.4965 21.9041 25.4965 22.254C25.4965 22.6039 25.2129 22.8876 24.8629 22.8876H20.8872C20.5373 22.8876 20.2537 22.6039 20.2537 22.254Z" fill="#14CCC1"/>
<path fill-rule="evenodd" clip-rule="evenodd" d="M20.2537 20.6054C20.2537 20.2555 20.5373 19.9718 20.8872 19.9718H24.8629C25.2129 19.9718 25.4965 20.2555 25.4965 20.6054C25.4965 20.9553 25.2129 21.239 24.8629 21.239H20.8872C20.5373 21.239 20.2537 20.9553 20.2537 20.6054Z" fill="#14CCC1"/>
<path fill-rule="evenodd" clip-rule="evenodd" d="M21.1917 20.5999C21.1917 20.25 21.4754 19.9663 21.8253 19.9663C23.1787 19.9663 24.249 21.0726 24.249 22.4225C24.249 23.5613 23.4873 24.5267 22.4365 24.8008L24.0973 26.3159C24.3558 26.5517 24.3742 26.9524 24.1383 27.2109C23.9025 27.4694 23.5018 27.4878 23.2432 27.252L20.4603 24.7132C20.267 24.5369 20.202 24.26 20.2965 24.0161C20.391 23.7723 20.6257 23.6115 20.8873 23.6115H21.8253C22.4575 23.6115 22.9819 23.0942 22.9819 22.4225C22.9819 21.7509 22.4575 21.2335 21.8253 21.2335C21.4754 21.2335 21.1917 20.9498 21.1917 20.5999Z" fill="#14CCC1"/>
</g>
</svg>
