<svg width="39" height="35" viewBox="0 0 39 35" fill="none" xmlns="http://www.w3.org/2000/svg">
<path d="M8.11888 29.6123V31.1958C8.11888 32.7445 9.37439 34 10.9231 34V34C12.4719 34 13.7274 32.7445 13.7274 31.1958V14.3146H12.1364H10.5455L8.95461 13.25L7.36369 14.3146H5.77276L4.18184 13.25L2.59092 14.3146H1V13.5C1 6.59645 6.59644 1 13.5 1V1C20.4036 1 26 6.59644 26 13.5V14.3146H23.8806H21.7612L19.6417 13.25L17.5223 14.3146" stroke="#0BC4A2" stroke-width="1.12" stroke-linecap="round"/>
<path opacity="0.4" fill-rule="evenodd" clip-rule="evenodd" d="M37.6901 32H19.3051C18.5884 32 18 31.4296 18 30.7274V20.0406C18 19.6988 18.1356 19.3709 18.3898 19.1329L27.54 10.3647C28.0484 9.88148 28.8571 9.877 29.368 10.36L38.6102 19.1329C38.8644 19.3757 39 19.6988 39 20.0403V30.718C38.9973 31.4296 38.4165 32 37.6901 32Z" fill="#28E3A0"/>
<path d="M26 22.4206H31.3171" stroke="#0BC3A2" stroke-width="1.12" stroke-linecap="round" stroke-linejoin="round"/>
<path d="M26 20.2292H31.3171" stroke="#0BC3A2" stroke-width="1.12" stroke-linecap="round" stroke-linejoin="round"/>
<path d="M27.4422 20.209C28.7082 20.209 29.7404 21.2412 29.7404 22.5072C29.7404 23.7728 28.7082 24.805 27.4422 24.805H26.2344L29.7986 27.9994" stroke="#0BC3A2" stroke-width="1.12" stroke-linecap="round" stroke-linejoin="round"/>
</svg>
