<svg width="41" height="39" viewBox="0 0 41 39" fill="none" xmlns="http://www.w3.org/2000/svg">
<path d="M10.6848 13.111V1H40V37.6098H26.8308" stroke="#271BC1" stroke-width="1.11895" stroke-linecap="round" stroke-linejoin="round"/>
<path d="M15.2324 7.24617H32.4426" stroke="#271BC1" stroke-width="1.11895" stroke-linecap="round" stroke-linejoin="round"/>
<path d="M15.2324 10.4083H32.4426" stroke="#271BC1" stroke-width="1.11895" stroke-linecap="round" stroke-linejoin="round"/>
<path fill-rule="evenodd" clip-rule="evenodd" d="M30.3297 19.3047C30.3297 22.3639 27.8498 24.8439 24.7905 24.8439C21.7317 24.8439 19.2517 22.3639 19.2517 19.3047C19.2517 16.2458 21.7317 13.7659 24.7905 13.7659C27.8498 13.7659 30.3297 16.2458 30.3297 19.3047Z" stroke="#271BC1" stroke-width="1.11895" stroke-linecap="round" stroke-linejoin="round"/>
<path d="M22.751 18.5108H26.8309" stroke="#271BC1" stroke-width="1.11895" stroke-linecap="round" stroke-linejoin="round"/>
<path d="M22.751 16.8289H26.8309" stroke="#271BC1" stroke-width="1.11895" stroke-linecap="round" stroke-linejoin="round"/>
<path d="M23.8569 16.814C24.8284 16.814 25.6205 17.606 25.6205 18.5775C25.6205 19.5486 24.8284 20.3406 23.8569 20.3406H22.9302L25.6651 22.7917" stroke="#271BC1" stroke-width="1.11895" stroke-linecap="round" stroke-linejoin="round"/>
<path fill-rule="evenodd" clip-rule="evenodd" d="M0 17.6404H5.62958V31.7147H0" fill="#271BC1" fill-opacity="0.5"/>
<path fill-rule="evenodd" clip-rule="evenodd" d="M21.4837 29.9318C22.1122 29.3043 22.1122 28.2587 21.4837 27.6312L14.3618 19.892L5.62939 19.7749V28.3364L13.2198 34.3226C13.4248 34.5291 13.8353 34.5291 14.0403 34.5291L28.4006 32.8778C29.2211 32.8778 29.8366 32.0519 29.8366 31.2261C29.8366 30.4006 29.2211 29.5748 28.1955 29.5748H21.9554" fill="#271BC1" fill-opacity="0.5"/>
<path d="M14.812 26.1494L19.1782 30.05C19.8676 30.7383 21.2657 30.4931 21.9554 29.5748C22.0546 29.4756 22.1576 29.2994 22.2097 29.0813" stroke="#E8EBF9" stroke-width="0.5" stroke-linecap="round" stroke-linejoin="round"/>
</svg>
