<svg width="40" height="40" viewBox="0 0 40 40" fill="none" xmlns="http://www.w3.org/2000/svg">
<rect x="17.8202" y="6.91138" width="17.7887" height="17.7887" fill="#A8A93D" fill-opacity="0.6"/>
<path d="M8.395 35.6183C8.79164 35.6183 9.11855 35.9169 9.16322 36.3015L9.16843 36.3917V38.6217C9.16843 39.0488 8.82215 39.3951 8.395 39.3951C7.99837 39.3951 7.67146 39.0965 7.62679 38.7119L7.62158 38.6217V36.3917C7.62158 35.9646 7.96785 35.6183 8.395 35.6183Z" fill="#A8A93D"/>
<path d="M24.3453 35.6183C24.742 35.6183 25.0689 35.9169 25.1135 36.3015L25.1187 36.3917V38.4533C25.1187 38.8804 24.7725 39.2267 24.3453 39.2267C23.9487 39.2267 23.6218 38.9281 23.5771 38.5435L23.5719 38.4533V36.3917C23.5719 35.9646 23.9182 35.6183 24.3453 35.6183Z" fill="#A8A93D"/>
<path d="M15.4995 35.6183C15.8961 35.6183 16.223 35.9169 16.2677 36.3015L16.2729 36.3917V38.4533C16.2729 38.8804 15.9266 39.2267 15.4995 39.2267C15.1029 39.2267 14.776 38.9281 14.7313 38.5435L14.7261 38.4533V36.3917C14.7261 35.9646 15.0723 35.6183 15.4995 35.6183Z" fill="#A8A93D"/>
<path d="M12.8151 27.7936C14.766 27.7936 16.5198 28.9829 17.2417 30.7953C17.3997 31.1922 17.2061 31.642 16.8093 31.8C16.4125 31.9581 15.9626 31.7645 15.8046 31.3677C15.3374 30.1946 14.2301 29.4081 12.979 29.3446L12.8151 29.3404H9.58946C9.16231 29.3404 8.81604 28.9942 8.81604 28.567C8.81604 28.1704 9.11461 27.8435 9.49926 27.7988L9.58946 27.7936H12.8151Z" fill="#A8A93D"/>
<path fill-rule="evenodd" clip-rule="evenodd" d="M9.99652 19.2859C10.027 19.2859 10.0571 19.2877 10.0867 19.2911L10.1654 19.3052L10.2001 19.3009C10.2552 19.2959 10.3106 19.2922 10.3664 19.2897L10.5347 19.2859C13.0462 19.2859 15.314 20.7656 16.3315 23.0467L16.418 23.2501L19.4518 30.7395L23.896 30.7399C25.6164 30.7399 27.021 32.0923 27.1046 33.7921L27.1085 33.9524C27.1085 35.6729 25.756 37.0774 24.0563 37.161L23.896 37.1649H9.55469C7.75455 37.1649 6.20095 35.9246 5.7912 34.1872L5.75514 34.0175L4.18102 25.7075C3.62454 22.7696 5.55498 19.937 8.49278 19.3805C8.74191 19.3333 8.99395 19.3037 9.24703 19.2918L9.50039 19.2859H9.99652ZM7.08855 21.676L7.0411 21.7147C6.03415 22.5457 5.47834 23.8633 5.66993 25.2328L5.70071 25.4198L7.27483 33.7299C7.47369 34.7797 8.36116 35.5517 9.41606 35.6142L9.55456 35.6183H23.8958C24.8158 35.6183 25.5615 34.8726 25.5615 33.9527C25.5615 33.0728 24.8792 32.3522 24.0148 32.2912L23.8958 32.287H12.1527C10.451 32.287 8.9569 31.176 8.45842 29.5631L8.41044 29.3945L6.97669 23.8893C6.8979 23.5867 6.85801 23.2754 6.85801 22.9627C6.85801 22.5867 6.91446 22.2239 7.01935 21.8822L7.08855 21.676ZM10.5344 20.8328L10.7292 20.8368C12.6059 20.9126 14.2742 22.0791 14.984 23.831L17.7825 30.7396L12.1525 30.74L12.0156 30.736C11.0173 30.6774 10.1618 29.9822 9.90715 29.0045L8.47341 23.4993L8.4353 23.3225C8.41493 23.2037 8.40466 23.0833 8.40466 22.9625C8.40466 21.7863 9.35817 20.8328 10.5344 20.8328Z" fill="#A8A93D"/>
<path d="M19.9269 27.7936C21.921 27.7936 23.7349 28.9476 24.58 30.7537C24.761 31.1406 24.5941 31.601 24.2072 31.782C23.8203 31.9631 23.3599 31.7962 23.1789 31.4093C22.6129 30.1995 21.425 29.4084 20.1004 29.3446L19.9269 29.3404H17.9446C17.5174 29.3404 17.1711 28.9942 17.1711 28.567C17.1711 28.1704 17.4697 27.8435 17.8544 27.7988L17.9446 27.7936H19.9269Z" fill="#A8A93D"/>
<path d="M15.8865 0C15.3907 0 14.9821 0.373215 14.9262 0.854031L14.9197 0.966778V8.17049C14.9197 8.70442 15.3526 9.13727 15.8865 9.13727C16.3823 9.13727 16.7909 8.76405 16.8468 8.28323L16.8533 8.17049V0.966778C16.8533 0.432841 16.4204 0 15.8865 0Z" fill="#A8A93D"/>
<path d="M16.0323 7.68457C14.6666 7.68457 13.5506 8.7535 13.4752 10.1003L13.4712 10.2457V13.6433C13.4712 14.0399 13.7697 14.3668 14.1544 14.4115L14.2446 14.4167H16.0323C16.4594 14.4167 16.8057 14.0704 16.8057 13.6433C16.8057 13.2466 16.5071 12.9197 16.1225 12.875L16.0323 12.8698L15.0186 12.8696L15.018 10.2457C15.018 9.72053 15.4171 9.28859 15.9286 9.23665L16.0323 9.23141C16.5574 9.23141 16.9894 9.63053 17.0413 10.142L17.0465 10.2457V13.6433C17.0465 14.0704 17.3928 14.4167 17.82 14.4167C18.2166 14.4167 18.5435 14.1181 18.5882 13.7335L18.5934 13.6433V10.2457C18.5934 8.83122 17.4467 7.68457 16.0323 7.68457Z" fill="#A8A93D"/>
<path d="M22.8468 0.193604C22.4502 0.193604 22.1233 0.492176 22.0786 0.876828L22.0734 0.967026V2.75678C22.0734 3.18393 22.4197 3.5302 22.8468 3.5302C23.2435 3.5302 23.5704 3.23163 23.615 2.84698L23.6202 2.75678V0.967026C23.6202 0.539876 23.274 0.193604 22.8468 0.193604Z" fill="#A8A93D"/>
<path d="M22.9927 2.27124C21.627 2.27124 20.511 3.34017 20.4357 4.68702L20.4316 4.83235V8.22993C20.4316 8.62657 20.7302 8.95347 21.1148 8.99815L21.205 9.00335H22.9927C23.4199 9.00335 23.7661 8.65708 23.7661 8.22993C23.7661 7.83329 23.4676 7.50639 23.0829 7.46171L22.9927 7.45651L21.9791 7.45626L21.9785 4.83235C21.9785 4.3072 22.3776 3.87526 22.889 3.82332L22.9927 3.81808C23.5179 3.81808 23.9498 4.2172 24.0018 4.72865L24.007 4.83235V8.22993C24.007 8.65708 24.3533 9.00335 24.7804 9.00335C25.177 9.00335 25.504 8.70478 25.5486 8.32013L25.5538 8.22993V4.83235C25.5538 3.41789 24.4072 2.27124 22.9927 2.27124Z" fill="#A8A93D"/>
<path d="M8.92519 0.193604C8.52855 0.193604 8.20164 0.492176 8.15697 0.876828L8.15176 0.967026V5.85047C8.15176 6.27762 8.49804 6.62389 8.92519 6.62389C9.32182 6.62389 9.64873 6.32532 9.69341 5.94067L9.69861 5.85047V0.967026C9.69861 0.539876 9.35234 0.193604 8.92519 0.193604Z" fill="#A8A93D"/>
<path d="M9.07109 5.3645C7.70541 5.3645 6.58938 6.43343 6.51404 7.78028L6.50998 7.92561V11.3232C6.50998 11.7198 6.80856 12.0467 7.19321 12.0914L7.28341 12.0966H9.07109C9.49824 12.0966 9.84452 11.7503 9.84452 11.3232C9.84452 10.9266 9.54594 10.5997 9.16129 10.555L9.07109 10.5498L8.05744 10.5495L8.05683 7.92561C8.05683 7.40046 8.45594 6.96852 8.96739 6.91658L9.07109 6.91135C9.59625 6.91135 10.0282 7.31046 10.0801 7.82191L10.0854 7.92561V11.3232C10.0854 11.7503 10.4316 12.0966 10.8588 12.0966C11.2554 12.0966 11.5823 11.798 11.627 11.4134L11.6322 11.3232V7.92561C11.6322 6.51115 10.4856 5.3645 9.07109 5.3645Z" fill="#A8A93D"/>
<path d="M38.7025 40C39.1296 40 39.4759 39.6537 39.4759 39.2266C39.4759 38.8299 39.1773 38.503 38.7927 38.4584L38.7025 38.4532L1.54649 38.4539L1.54684 1.49729C1.54684 1.10065 1.24827 0.77375 0.86362 0.729073L0.773422 0.723869C0.376784 0.723869 0.0498802 1.02244 0.00520338 1.40709L0 1.49729V39.2266C0 39.6232 0.298572 39.9501 0.683225 39.9948L0.773422 40H38.7025Z" fill="#A8A93D"/>
</svg>
