<svg width="40" height="39" viewBox="0 0 40 39" fill="none" xmlns="http://www.w3.org/2000/svg">
<path fill-rule="evenodd" clip-rule="evenodd" d="M39.2657 33.979H37.3951C36.9886 33.979 36.6606 33.651 36.6606 33.2445C36.6606 32.8381 36.9886 32.51 37.3951 32.51H38.5311V26.3204L31.3793 20.5079V27.6034C31.3793 28.0098 31.0512 28.3379 30.6448 28.3379C30.2384 28.3379 29.9103 28.0098 29.9103 27.6034V18.9654C29.9103 18.6814 30.0743 18.4243 30.329 18.3019C30.586 18.1794 30.8872 18.2162 31.1076 18.3949L39.7284 25.3998C39.8998 25.5394 40.0002 25.7475 40.0002 25.9703V33.2445C40.0002 33.651 39.6697 33.979 39.2657 33.979Z" fill="#DCA38C"/>
<path fill-rule="evenodd" clip-rule="evenodd" d="M25.1841 33.9788H14.8935C14.487 33.9788 14.1589 33.6507 14.1589 33.2443C14.1589 32.8379 14.487 32.5098 14.8935 32.5098H25.1841C25.5906 32.5098 25.9187 32.8379 25.9187 33.2443C25.9187 33.6507 25.5906 33.9788 25.1841 33.9788Z" fill="#DCA38C"/>
<path fill-rule="evenodd" clip-rule="evenodd" d="M2.9283 33.979H0.734524C0.328087 33.979 0 33.6509 0 33.2444V15.1947C0 14.7883 0.328087 14.4602 0.734524 14.4602H27.4075C27.814 14.4602 28.1421 14.7883 28.1421 15.1947V27.9559C28.1421 28.3623 27.814 28.6904 27.4075 28.6904H5.31551C4.90907 28.6904 4.58098 28.3623 4.58098 27.9559C4.58098 27.5494 4.90907 27.2213 5.31551 27.2213H26.673V15.9293H1.4715V32.5124H2.93075C3.33719 32.5124 3.66527 32.8404 3.66527 33.2469C3.66527 33.6533 3.33474 33.979 2.9283 33.979Z" fill="#DCA38C"/>
<path fill-rule="evenodd" clip-rule="evenodd" d="M2.48779 21.8105H24.2983V0H2.48779V21.8105Z" fill="#DCA38C" fill-opacity="0.6"/>
<path fill-rule="evenodd" clip-rule="evenodd" d="M8.6988 31.2922C7.11223 31.2922 5.82192 32.5825 5.82192 34.1691C5.82192 35.7557 7.11223 37.046 8.6988 37.046C10.2854 37.046 11.5757 35.7557 11.5757 34.1691C11.5781 32.5825 10.2854 31.2922 8.6988 31.2922ZM8.69896 38.518C6.30196 38.518 4.35303 36.5691 4.35303 34.1721C4.35303 31.7751 6.30196 29.8262 8.69896 29.8262C11.096 29.8262 13.0449 31.7751 13.0449 34.1721C13.0449 36.5691 11.096 38.518 8.69896 38.518Z" fill="#DCA38C"/>
<path fill-rule="evenodd" clip-rule="evenodd" d="M31.3499 31.2922C29.7634 31.2922 28.4731 32.5825 28.4731 34.1691C28.4731 35.7557 29.7634 37.046 31.3499 37.046C32.9365 37.046 34.2268 35.7557 34.2268 34.1691C34.2268 32.5825 32.9365 31.2922 31.3499 31.2922ZM31.3495 38.518C28.9525 38.518 27.0035 36.5691 27.0035 34.1721C27.0035 31.7751 28.9525 29.8262 31.3495 29.8262C33.7465 29.8262 35.6954 31.7751 35.6954 34.1721C35.6954 36.5691 33.7465 38.518 31.3495 38.518Z" fill="#DCA38C"/>
</svg>
